<?xml version="1.0" encoding="utf-8"?>
<!-- Generator: Adobe Illustrator 21.0.0, SVG Export Plug-In . SVG Version: 6.00 Build 0)  -->
<svg version="1.1" id="Layer_1" xmlns="http://www.w3.org/2000/svg" xmlns:xlink="http://www.w3.org/1999/xlink" x="0px" y="0px"
	 viewBox="0 0 260 116" style="enable-background:new 0 0 260 116;" xml:space="preserve">
<style type="text/css">
	.st0{fill:#F2F2F2;}
	.st1{fill:#999999;}
</style>
<rect class="st0" width="260" height="116"/>
<g>
	<path class="st1" d="M130,16.8c-12,0-21.8,9.8-21.8,21.8c0,8.6,3.6,17.3,10.4,25.1c5.1,5.9,10.1,9.2,10.3,9.3
		c0.3,0.2,0.7,0.3,1.1,0.3c0.4,0,0.8-0.1,1.1-0.3c0.2-0.1,5.2-3.5,10.3-9.3c6.8-7.8,10.4-16.5,10.4-25.1
		C151.8,26.6,142,16.8,130,16.8L130,16.8z M130,68.9c-4-3-17.8-14.4-17.8-30.4c0-9.8,8-17.9,17.9-17.9s17.9,8,17.9,17.9
		C147.9,54.5,134,66,130,68.9L130,68.9z M130,68.9"/>
	<path class="st1" d="M136.1,32.4c-0.8-0.8-2-0.8-2.8,0l-3.3,3.3l-3.3-3.3c-0.8-0.8-2-0.8-2.8,0c-0.8,0.8-0.8,2,0,2.8l3.3,3.3
		l-3.3,3.3c-0.8,0.8-0.8,2,0,2.8c0.4,0.4,0.9,0.6,1.4,0.6c0.5,0,1-0.2,1.4-0.6l3.3-3.3l3.3,3.3c0.4,0.4,0.9,0.6,1.4,0.6
		c0.5,0,1-0.2,1.4-0.6c0.8-0.8,0.8-2,0-2.8l-3.3-3.3l3.3-3.3C136.9,34.5,136.9,33.2,136.1,32.4L136.1,32.4z M136.1,32.4"/>
</g>
<g>
	<path class="st1" d="M71.6,88.5h1V96h4.2v1h-5.3V88.5z"/>
	<path class="st1" d="M79.6,96.8c-0.4-0.2-0.7-0.4-1-0.6s-0.5-0.6-0.6-0.9s-0.2-0.8-0.2-1.2s0.1-0.8,0.2-1.2s0.3-0.7,0.6-1
		s0.6-0.5,1-0.6s0.8-0.2,1.2-0.2c0.6,0,1.1,0.1,1.5,0.4s0.8,0.6,1.1,1.1s0.4,1,0.4,1.6c0,0.6-0.1,1.1-0.4,1.6s-0.6,0.8-1.1,1.1
		s-1,0.4-1.5,0.4C80.4,97.1,79.9,97,79.6,96.8z M81.8,95.9c0.3-0.2,0.6-0.4,0.7-0.7s0.3-0.7,0.3-1.1c0-0.4-0.1-0.8-0.3-1.1
		s-0.4-0.6-0.7-0.7s-0.6-0.3-1-0.3c-0.4,0-0.8,0.1-1.1,0.3S79.2,92.7,79,93s-0.3,0.7-0.3,1.1c0,0.4,0.1,0.7,0.3,1.1s0.4,0.6,0.7,0.8
		s0.7,0.3,1.1,0.3C81.2,96.2,81.5,96.1,81.8,95.9z"/>
	<path class="st1" d="M86.3,96.7c-0.4-0.3-0.8-0.6-1-1.1s-0.4-1-0.4-1.6s0.1-1.1,0.4-1.6s0.6-0.8,1-1.1s0.9-0.4,1.5-0.4
		c0.4,0,0.9,0.1,1.3,0.3s0.8,0.4,1.1,0.8l-0.7,0.6c-0.2-0.2-0.4-0.4-0.7-0.5S88.2,92,87.9,92c-0.6,0-1.1,0.2-1.4,0.6
		s-0.6,0.9-0.6,1.5s0.2,1.1,0.6,1.5s0.8,0.6,1.4,0.6c0.3,0,0.6-0.1,0.9-0.2s0.5-0.3,0.7-0.5l0.7,0.6c-0.3,0.3-0.6,0.5-1,0.7
		s-0.9,0.3-1.4,0.3C87.3,97.1,86.8,97,86.3,96.7z"/>
	<path class="st1" d="M97.1,91.2V97h-0.9v-0.9h0c-0.2,0.3-0.5,0.6-0.9,0.7s-0.7,0.3-1.2,0.3c-0.4,0-0.8-0.1-1.1-0.2
		s-0.7-0.3-0.9-0.6s-0.5-0.6-0.6-0.9s-0.2-0.8-0.2-1.2c0-0.6,0.1-1.1,0.4-1.5s0.6-0.8,1-1.1s0.9-0.4,1.5-0.4c0.4,0,0.8,0.1,1.1,0.2
		s0.6,0.4,0.9,0.7h0v-0.9H97.1z M94.9,96c0.2-0.1,0.4-0.2,0.6-0.4s0.3-0.4,0.4-0.7s0.2-0.5,0.2-0.8c0-0.3,0-0.6-0.1-0.8
		s-0.2-0.5-0.4-0.7s-0.4-0.3-0.6-0.5S94.5,92,94.2,92c-0.6,0-1,0.2-1.4,0.6s-0.6,0.9-0.6,1.6c0,0.6,0.2,1.1,0.5,1.5s0.8,0.6,1.4,0.6
		C94.4,96.2,94.7,96.1,94.9,96z"/>
	<path class="st1" d="M99,95.3V92h-0.7v-0.8H99v-2l1-0.1v2.1h1.9V92H100v3.1c0,0.4,0.1,0.6,0.2,0.8s0.3,0.2,0.6,0.2
		c0.3,0,0.6-0.1,1-0.3l0.3,0.8c-0.1,0.1-0.2,0.1-0.4,0.2s-0.3,0.1-0.5,0.1s-0.4,0.1-0.6,0.1C99.5,97.1,99,96.5,99,95.3z"/>
	<path class="st1" d="M103.2,89.9c-0.1-0.1-0.2-0.3-0.2-0.5c0-0.2,0.1-0.4,0.2-0.5s0.3-0.2,0.5-0.2c0.1,0,0.2,0,0.3,0.1
		s0.2,0.1,0.3,0.2s0.1,0.2,0.1,0.3c0,0.2-0.1,0.3-0.2,0.5s-0.3,0.2-0.5,0.2C103.5,90.1,103.4,90,103.2,89.9z M103.2,91.2h1V97h-1
		V91.2z"/>
	<path class="st1" d="M107.6,96.8c-0.4-0.2-0.7-0.4-1-0.6s-0.5-0.6-0.6-0.9s-0.2-0.8-0.2-1.2s0.1-0.8,0.2-1.2s0.3-0.7,0.6-1
		s0.6-0.5,1-0.6s0.8-0.2,1.2-0.2c0.6,0,1.1,0.1,1.5,0.4s0.8,0.6,1.1,1.1s0.4,1,0.4,1.6c0,0.6-0.1,1.1-0.4,1.6s-0.6,0.8-1.1,1.1
		s-1,0.4-1.5,0.4C108.4,97.1,108,97,107.6,96.8z M109.8,95.9c0.3-0.2,0.6-0.4,0.7-0.7s0.3-0.7,0.3-1.1c0-0.4-0.1-0.8-0.3-1.1
		s-0.4-0.6-0.7-0.7s-0.6-0.3-1-0.3c-0.4,0-0.8,0.1-1.1,0.3s-0.6,0.4-0.7,0.8s-0.3,0.7-0.3,1.1c0,0.4,0.1,0.7,0.3,1.1
		s0.4,0.6,0.7,0.8s0.7,0.3,1.1,0.3C109.2,96.2,109.5,96.1,109.8,95.9z"/>
	<path class="st1" d="M118,91.7c0.4,0.4,0.6,1,0.6,1.8V97h-1v-3.2c0-0.3,0-0.6-0.1-0.9s-0.2-0.4-0.3-0.6s-0.3-0.2-0.4-0.3
		s-0.4-0.1-0.6-0.1c-0.6,0-1,0.2-1.3,0.6s-0.5,0.9-0.5,1.5V97h-1v-5.8h1v1h0c0.2-0.3,0.5-0.6,0.9-0.8s0.8-0.3,1.2-0.3
		C117.1,91.1,117.6,91.3,118,91.7z"/>
	<path class="st1" d="M125.6,96.8c-0.4-0.2-0.8-0.4-1-0.7s-0.5-0.7-0.7-1.1s-0.2-0.9-0.2-1.5v-5.1h1v5c0,0.8,0.2,1.4,0.6,1.9
		s1,0.7,1.6,0.7c0.7,0,1.2-0.2,1.6-0.7s0.6-1.1,0.6-1.9v-5h1v5.1c0,1.1-0.3,2-0.9,2.6s-1.4,1-2.4,1C126.4,97.1,126,97,125.6,96.8z"
		/>
	<path class="st1" d="M136.8,91.7c0.4,0.4,0.6,1,0.6,1.8V97h-1v-3.2c0-0.3,0-0.6-0.1-0.9s-0.2-0.4-0.3-0.6s-0.3-0.2-0.4-0.3
		s-0.4-0.1-0.6-0.1c-0.6,0-1,0.2-1.3,0.6s-0.5,0.9-0.5,1.5V97h-1v-5.8h1v1h0c0.2-0.3,0.5-0.6,0.9-0.8s0.8-0.3,1.2-0.3
		C135.9,91.1,136.4,91.3,136.8,91.7z"/>
	<path class="st1" d="M144.6,91.2V97h-0.9v-0.9h0c-0.2,0.3-0.5,0.6-0.9,0.7s-0.7,0.3-1.2,0.3c-0.4,0-0.8-0.1-1.1-0.2
		s-0.7-0.3-0.9-0.6s-0.5-0.6-0.6-0.9s-0.2-0.8-0.2-1.2c0-0.6,0.1-1.1,0.4-1.5s0.6-0.8,1-1.1s0.9-0.4,1.5-0.4c0.4,0,0.8,0.1,1.1,0.2
		s0.6,0.4,0.9,0.7h0v-0.9H144.6z M142.4,96c0.2-0.1,0.4-0.2,0.6-0.4s0.3-0.4,0.4-0.7s0.2-0.5,0.2-0.8c0-0.3,0-0.6-0.1-0.8
		s-0.2-0.5-0.4-0.7s-0.4-0.3-0.6-0.5S142,92,141.7,92c-0.6,0-1,0.2-1.4,0.6s-0.6,0.9-0.6,1.6c0,0.6,0.2,1.1,0.5,1.5s0.8,0.6,1.4,0.6
		C141.9,96.2,142.2,96.1,142.4,96z"/>
	<path class="st1" d="M151.4,91.2l-2.4,5.8h-0.9l-2.4-5.8h1l1.8,4.6h0l1.8-4.6H151.4z"/>
	<path class="st1" d="M157.8,91.2V97h-0.9v-0.9h0c-0.2,0.3-0.5,0.6-0.9,0.7s-0.7,0.3-1.2,0.3c-0.4,0-0.8-0.1-1.1-0.2
		s-0.7-0.3-0.9-0.6s-0.5-0.6-0.6-0.9s-0.2-0.8-0.2-1.2c0-0.6,0.1-1.1,0.4-1.5s0.6-0.8,1-1.1s0.9-0.4,1.5-0.4c0.4,0,0.8,0.1,1.1,0.2
		s0.6,0.4,0.9,0.7h0v-0.9H157.8z M155.7,96c0.2-0.1,0.4-0.2,0.6-0.4s0.3-0.4,0.4-0.7s0.2-0.5,0.2-0.8c0-0.3,0-0.6-0.1-0.8
		s-0.2-0.5-0.4-0.7s-0.4-0.3-0.6-0.5s-0.5-0.2-0.8-0.2c-0.6,0-1,0.2-1.4,0.6s-0.6,0.9-0.6,1.6c0,0.6,0.2,1.1,0.5,1.5
		s0.8,0.6,1.4,0.6C155.2,96.2,155.4,96.1,155.7,96z"/>
	<path class="st1" d="M159.7,89.9c-0.1-0.1-0.2-0.3-0.2-0.5c0-0.2,0.1-0.4,0.2-0.5s0.3-0.2,0.5-0.2c0.1,0,0.2,0,0.3,0.1
		s0.2,0.1,0.3,0.2s0.1,0.2,0.1,0.3c0,0.2-0.1,0.3-0.2,0.5s-0.3,0.2-0.5,0.2C160,90.1,159.8,90,159.7,89.9z M159.7,91.2h1V97h-1V91.2
		z"/>
	<path class="st1" d="M162.7,88.2h1V97h-1V88.2z"/>
	<path class="st1" d="M171.1,91.2V97h-0.9v-0.9h0c-0.2,0.3-0.5,0.6-0.9,0.7s-0.7,0.3-1.2,0.3c-0.4,0-0.8-0.1-1.1-0.2
		s-0.7-0.3-0.9-0.6s-0.5-0.6-0.6-0.9s-0.2-0.8-0.2-1.2c0-0.6,0.1-1.1,0.4-1.5s0.6-0.8,1-1.1s0.9-0.4,1.5-0.4c0.4,0,0.8,0.1,1.1,0.2
		s0.6,0.4,0.9,0.7h0v-0.9H171.1z M169,96c0.2-0.1,0.4-0.2,0.6-0.4s0.3-0.4,0.4-0.7s0.2-0.5,0.2-0.8c0-0.3,0-0.6-0.1-0.8
		s-0.2-0.5-0.4-0.7s-0.4-0.3-0.6-0.5s-0.5-0.2-0.8-0.2c-0.6,0-1,0.2-1.4,0.6s-0.6,0.9-0.6,1.6c0,0.6,0.2,1.1,0.5,1.5
		s0.8,0.6,1.4,0.6C168.5,96.2,168.7,96.1,169,96z"/>
	<path class="st1" d="M177.4,91.5c0.4,0.3,0.8,0.6,1,1.1s0.4,1,0.4,1.5c0,0.4-0.1,0.8-0.2,1.2s-0.4,0.7-0.6,0.9s-0.6,0.5-0.9,0.6
		s-0.7,0.2-1.1,0.2c-0.4,0-0.8-0.1-1.2-0.3s-0.6-0.4-0.9-0.7h0V97h-0.9v-8.8h1V92h0c0.2-0.3,0.5-0.5,0.9-0.7s0.7-0.2,1.1-0.2
		C176.5,91.1,176.9,91.2,177.4,91.5z M177.2,95.6c0.4-0.4,0.5-0.9,0.5-1.5c0-0.6-0.2-1.2-0.6-1.6s-0.8-0.6-1.4-0.6
		c-0.4,0-0.7,0.1-1,0.3s-0.5,0.4-0.7,0.8s-0.3,0.7-0.3,1.1c0,0.3,0.1,0.6,0.2,0.8s0.2,0.5,0.4,0.7s0.4,0.3,0.6,0.4s0.5,0.1,0.8,0.1
		C176.4,96.2,176.9,96,177.2,95.6z"/>
	<path class="st1" d="M180.4,88.2h1V97h-1V88.2z"/>
	<path class="st1" d="M188.4,94.4h-4.5c0.1,0.5,0.3,1,0.6,1.3s0.8,0.5,1.3,0.5c0.3,0,0.7-0.1,0.9-0.2s0.5-0.3,0.7-0.6l0.7,0.6
		c-0.3,0.3-0.6,0.6-1,0.8s-0.9,0.3-1.4,0.3c-0.4,0-0.8-0.1-1.2-0.2s-0.7-0.3-0.9-0.6s-0.5-0.6-0.6-0.9s-0.2-0.8-0.2-1.2
		c0-0.4,0.1-0.8,0.2-1.2s0.3-0.7,0.6-0.9s0.5-0.5,0.9-0.6s0.7-0.2,1.1-0.2c0.5,0,1,0.1,1.4,0.4s0.7,0.6,1,1s0.3,0.9,0.3,1.5
		C188.4,94.1,188.4,94.3,188.4,94.4z M184.6,92.4c-0.3,0.3-0.5,0.7-0.6,1.2h3.5c-0.1-0.5-0.3-0.9-0.6-1.2s-0.7-0.4-1.1-0.4
		C185.3,92,184.9,92.1,184.6,92.4z"/>
</g>
</svg>
