<svg xmlns="http://www.w3.org/2000/svg" width="138" height="66.333" viewBox="0 0 138 66.333"><defs><style>.a{fill:#aeaeae;font-size:14px;font-family:Averta-Regular, Averta-Regular ☞;}.b{fill:#999;}</style></defs><g transform="translate(1)"><text class="a" transform="translate(68 63.333)"><tspan x="-68.069" y="0">Location unavailable</tspan></text><g transform="translate(53.767)"><path class="b" d="M13.861,0A13.9,13.9,0,0,0,0,13.882c0,5.456,2.279,11,6.606,15.972a37.109,37.109,0,0,0,6.564,5.937,1.167,1.167,0,0,0,.69.209,1.212,1.212,0,0,0,.69-.209,34.477,34.477,0,0,0,6.564-5.937c4.328-5,6.606-10.516,6.606-15.972A13.87,13.87,0,0,0,13.861,0Zm0,33.2C11.31,31.3,2.509,24,2.509,13.882a11.352,11.352,0,1,1,22.7,0c.021,10.1-8.78,17.394-11.352,19.317Zm0,0"/><path class="b" d="M54.216,46.339a1.288,1.288,0,0,0-1.795,0l-2.154,2.133-2.133-2.133a1.269,1.269,0,0,0-1.795,1.795l2.154,2.154-2.154,2.133a1.288,1.288,0,0,0,0,1.795,1.251,1.251,0,0,0,.887.38,1.216,1.216,0,0,0,.887-.38l2.154-2.154,2.154,2.154a1.251,1.251,0,0,0,.887.38,1.216,1.216,0,0,0,.887-.38,1.288,1.288,0,0,0,0-1.795l-2.133-2.154,2.154-2.133a1.288,1.288,0,0,0,0-1.795Zm0,0" transform="translate(-36.407 -36.394)"/></g></g></svg>