<svg id="Layer_1" data-name="Layer 1" xmlns="http://www.w3.org/2000/svg" viewBox="0 0 64 64"><defs><style>.cls-1{fill:#f89e1b;}</style></defs><title>003</title><path class="cls-1" d="M39.27,17.43,34.75,20.1,26.3,15.59l-2.08,1.22,6.52,5.64-3.68,2.17-2.29-.85-1.88,1.1,2.79,1.85.24,3.3,2-1.17.3-2.33,0,0,3.66-2.15,1.7,8.33,2.1-1.24.2-9.44,4.53-2.67a1.09,1.09,0,0,0-1.11-1.88Z"/><path class="cls-1" d="M48.09,6.79A22.75,22.75,0,0,0,9.24,22.88c0,3.86,1.18,8.4,3.5,13.48a86.49,86.49,0,0,0,7.63,13.06A138.76,138.76,0,0,0,31.44,63.29l.56.59.56-.59A139.64,139.64,0,0,0,43.64,49.42a86.49,86.49,0,0,0,7.63-13.06c2.32-5.08,3.5-9.62,3.49-13.48A22.63,22.63,0,0,0,48.09,6.79ZM32,37.78A14.86,14.86,0,1,1,46.86,22.92,14.88,14.88,0,0,1,32,37.78Z"/></svg>