<svg xmlns="http://www.w3.org/2000/svg" id="chocks_icon" width="20" height="20" viewBox="0 0 20 20">
    <defs>
        <style>
            .cls-1{fill:#424143}.cls-2{fill:#fdfeff}.cls-3{fill:#fff}
        </style>
    </defs>
    <g id="Group_509" data-name="Group 509">
        <ellipse id="Ellipse_8" cx="9.578" cy="9.536" class="cls-1" data-name="Ellipse 8" rx="9.578" ry="9.536" transform="translate(.38 .338)"/>
        <path id="Path_995" d="M9.958.292a9.647 9.647 0 0 1 9.625 9.583 9.646 9.646 0 0 1-19.292 0A9.629 9.629 0 0 1 9.958.292m0-.292A9.941 9.941 0 0 0 0 10 10 10 0 1 0 9.958 0z" class="cls-2" data-name="Path 995"/>
    </g>
    <g id="Group_510" data-name="Group 510" transform="translate(4.089 4.089)">
        <path id="Path_996" d="M14.856 19.711a4.856 4.856 0 1 1 4.982-4.811 5.072 5.072 0 0 1-4.982 4.811zm0-7.136a2.245 2.245 0 0 0-2.238 2.325 2.387 2.387 0 0 0 2.238 2.322 2.31 2.31 0 0 0 2.238-2.238 2.268 2.268 0 0 0-2.238-2.408z" class="cls-3" data-name="Path 996" transform="translate(-10 -10)"/>
        <path id="Path_997" d="M28.756 22.5v6.544H22a17.372 17.372 0 0 0 6.756-6.544z" class="cls-3" data-name="Path 997" transform="translate(-16.933 -17.222)"/>
        <path id="Path_998" d="M21.582 20.791a.591.591 0 1 1-.591-.591c.209.042.591.253.591.591z" class="cls-3" data-name="Path 998" transform="translate(-16.009 -15.893)"/>
    </g>
</svg>
