<svg xmlns="http://www.w3.org/2000/svg" xmlns:xlink="http://www.w3.org/1999/xlink" width="45.329" height="44.968" viewBox="0 0 45.329 44.968">
  <defs>
    <clipPath id="clip-path">
      <rect width="34.156" height="33.372" fill="none"/>
    </clipPath>
  </defs>
  <g id="Component_9_3" data-name="Component 9 – 3" transform="matrix(-0.899, 0.438, -0.438, -0.899, 45.328, 29.995)" clip-path="url(#clip-path)">
    <g id="Group_430" data-name="Group 430" transform="translate(34.156 33.372) rotate(180)">
      <path id="Path_456" data-name="Path 456" d="M34.156,20.36a.539.539,0,0,0-.2-.392L18.678,8.016V6.563A13.167,13.167,0,0,0,18.547,4.6C18.319,2.955,17.8,0,17.078,0c-.735,0-1.241,2.988-1.469,4.62a15.019,15.019,0,0,0-.131,1.91V7.919L.2,19.87a.539.539,0,0,0-.2.392v2.531c.212-.1.441-.212.653-.31L2.318,21.7c.735-.343,1.486-.7,2.22-1.045.784-.359,1.551-.735,2.335-1.094.669-.31,1.339-.62,1.992-.947a16.613,16.613,0,0,1,1.976-.9,8.983,8.983,0,0,1,2.09-.441A3.584,3.584,0,0,1,15,17.535c.065.033.473.245.473.327v2.122a10.022,10.022,0,0,0,.245,2.2l.751,4.376-5.159,5.143v1.665l5.763-2.531,5.763,2.531V31.707l-5.159-5.143.751-4.376A9.986,9.986,0,0,0,18.678,20V17.96c0-.082.408-.294.473-.327a3.584,3.584,0,0,1,2.074-.261,8.984,8.984,0,0,1,2.09.441,16.614,16.614,0,0,1,1.976.9c.653.327,1.322.637,1.992.947.784.359,1.551.735,2.335,1.094.735.343,1.486.7,2.22,1.045l1.665.784c.212.1.441.212.653.31Z" fill="#ea4335"/>
      <path id="Path_457" data-name="Path 457" d="M503.613,294.718Z" transform="translate(-469.865 -274.326)" fill="#ea4335"/>
    </g>
  </g>
</svg>
