<svg id="Layer_1" data-name="Layer 1" xmlns="http://www.w3.org/2000/svg" viewBox="0 0 64 64"><defs><style>.cls-1{fill:#e71d29;}</style></defs><title>001</title><path class="cls-1" d="M39.11,17.55l-4.53,2.67L26.14,15.7l-2.08,1.23,6.52,5.64-3.69,2.17-2.28-.85L22.73,25l2.78,1.84.25,3.3,2-1.17.3-2.33,0,0,3.66-2.15,1.69,8.33,2.11-1.24.2-9.45,4.53-2.66a1.09,1.09,0,0,0-1.11-1.88Z"/><path class="cls-1" d="M47.93,6.9A22.76,22.76,0,0,0,9.08,23c0,3.86,1.17,8.39,3.5,13.48a85.65,85.65,0,0,0,7.63,13.06A137.11,137.11,0,0,0,31.28,63.41l.56.59.56-.59A138.76,138.76,0,0,0,43.47,49.54,84.83,84.83,0,0,0,51.1,36.48c2.33-5.09,3.51-9.62,3.5-13.48A22.71,22.71,0,0,0,47.93,6.9Zm-16.09,31A14.87,14.87,0,1,1,46.7,23,14.88,14.88,0,0,1,31.84,37.9Z"/></svg>