<?xml version="1.0" encoding="utf-8"?>
<!-- Generator: Adobe Illustrator 23.0.3, SVG Export Plug-In . SVG Version: 6.00 Build 0)  -->
<svg version="1.1" id="Layer_1" xmlns="http://www.w3.org/2000/svg" xmlns:xlink="http://www.w3.org/1999/xlink" x="0px" y="0px"
	 viewBox="0 0 240 240" style="enable-background:new 0 0 240 240;" xml:space="preserve">
<style type="text/css">
	.st0{fill:#424143;}
	.st1{fill:#F7F7F7;}
	.st2{fill:#D6D6D6;}
	.st3{fill:#FDFEFF;}
</style>
<g id="Flight">
	<g>
		<path class="st0" d="M224.6,152.5c0-0.9-0.5-1.8-1.2-2.4l-93.6-73.2V68c0-4-0.2-8-0.8-12c-1.4-10.1-4.6-28.2-9-28.2
			c-4.5,0-7.6,18.3-9,28.3c-0.5,3.9-0.8,7.8-0.8,11.7v8.5l-93.6,73.2c-0.7,0.6-1.2,1.5-1.2,2.4c0,0.1,0,15.5,0,15.5
			c1.3-0.6,2.7-1.3,4-1.9c3.4-1.6,6.8-3.2,10.2-4.8c4.5-2.1,9.1-4.3,13.6-6.4c4.8-2.2,9.5-4.5,14.3-6.7c4.1-1.9,8.2-3.8,12.2-5.8
			c4-1.9,7.8-4.1,12.1-5.5c4.1-1.3,8.4-2.4,12.8-2.7c4.2-0.4,9-0.5,12.7,1.6c0.4,0.2,2.9,1.5,2.9,2v13c0,6.4,0.5,7.2,1.5,13.5
			l4.6,26.8L84.7,222v10.2l35.3-15.5l35.3,15.5V222l-31.6-31.5l4.6-26.8c1-6.3,1.5-7.1,1.5-13.4v-12.5c0-0.5,2.5-1.8,2.9-2
			c3.7-2.1,8.5-2,12.7-1.6c4.4,0.3,8.7,1.4,12.8,2.7c4.3,1.4,8.1,3.6,12.1,5.5c4,2,8.1,3.9,12.2,5.8c4.8,2.2,9.5,4.5,14.3,6.7
			c4.5,2.1,9.1,4.3,13.6,6.4c3.4,1.6,6.8,3.2,10.2,4.8c1.3,0.6,2.7,1.3,4,1.9C224.6,168,224.6,152.7,224.6,152.5z"/>
		<path class="st1" d="M221.9,152.2l-93.1-73.5V67.3c0-3.9-0.3-7.8-1-11.6c-2.9-16.6-6.1-20.6-7.8-22.5c-1.7,1.8-4.9,5.9-7.8,22.5
			c-0.7,3.7-1,7.6-1,11.4V78l-93.1,73.5c-0.1,0.1-0.2,0.3-0.2,0.5v11.5c0-0.1,1.2-0.6,1.3-0.6c1.2-0.6,2.5-1.2,3.7-1.8
			c1.8-0.9,3.7-1.8,5.6-2.7c2.3-1.1,4.7-2.2,7-3.3c2.7-1.2,5.3-2.5,7.9-3.7c2.7-1.2,5.4-2.5,8.1-3.8c2.7-1.2,5.3-2.5,7.9-3.7
			c2.3-1.1,4.7-2.2,7-3.3c1.9-0.9,3.8-1.8,5.7-2.7c1.5-0.7,2.9-1.4,4.4-2.1c4.3-2.1,8.8-3.5,13.5-4.3c2.6-0.4,5.1-0.7,7.7-0.7
			c2.5,0,5,0.1,7.5,0.7c1,0.3,2,0.6,2.9,1c0.2,0.1,1.8,0.8,3.1,1.9v15.2c0,6.2,0.6,6.9,1.8,13l6.5,30.1h-1.8l-30.2,30.2v4.9
			l32.5-14.4l32.5,14.4v-4.9l-30.2-30.2h-1.8l6.5-30c1.2-6.2,1.8-6.9,1.8-13.1v-14.4c1.5-1.3,2.9-1.9,3.1-2c0.9-0.4,1.9-0.7,2.9-1
			c2.5-0.6,5-0.7,7.5-0.7c2.6,0,5.1,0.3,7.7,0.7c4.7,0.8,9.2,2.2,13.5,4.3c1.5,0.7,2.9,1.4,4.4,2.1c1.9,0.9,3.8,1.8,5.7,2.7
			c2.3,1.1,4.7,2.2,7,3.3c2.6,1.2,5.2,2.5,7.9,3.7c2.7,1.3,5.4,2.6,8.1,3.8c2.6,1.2,5.2,2.5,7.9,3.7c2.3,1.1,4.7,2.2,7,3.3
			c1.9,0.9,3.8,1.8,5.6,2.7c1.2,0.6,2.5,1.2,3.7,1.8c0.1,0,1.3,0.5,1.3,0.6v-11.5C222.1,152.5,222,152.3,221.9,152.2z"/>
	</g>
	<path class="st2" d="M121.6,49.9c-0.4-0.2-0.9-0.3-1.6-0.3s-1.3,0.1-1.6,0.3c-3.6,1.6-4.5,8-4.5,8V61c0,0,1.2-4.3,6.1-4.3
		c5,0,6.1,4.3,6.1,4.3v-3.1C126.1,57.9,125.2,51.5,121.6,49.9z"/>
</g>
<g>
	<g>
		<ellipse class="st0" cx="139.2" cy="171.2" rx="7.7" ry="7.6"/>
		<g>
			<path class="st3" d="M139.2,163.9c4,0,7.3,3.3,7.3,7.3c0,4-3.3,7.3-7.3,7.3c-4,0-7.3-3.3-7.3-7.3
				C131.8,167.2,135.1,163.9,139.2,163.9 M139.2,163.3c-4.4,0-8,3.5-8,8c0,4.5,3.6,8,8,8c4.4,0,8-3.5,8-8
				C147.2,166.8,143.6,163.3,139.2,163.3L139.2,163.3z"/>
		</g>
	</g>
</g>
<g>
	<g>
		<circle class="st0" cx="212.7" cy="132.3" r="7.7"/>
		<g>
			<path class="st3" d="M212.7,124.9c4,0,7.3,3.3,7.3,7.3s-3.3,7.3-7.3,7.3c-4,0-7.3-3.3-7.3-7.3S208.6,124.9,212.7,124.9
				 M212.7,124.3c-4.4,0-8,3.6-8,8c0,4.4,3.6,8,8,8c4.4,0,8-3.6,8-8C220.7,127.9,217,124.3,212.7,124.3L212.7,124.3z"/>
		</g>
	</g>
</g>
<g>
	<g>
		<ellipse class="st0" cx="96.1" cy="66.1" rx="7.7" ry="7.6"/>
		<path class="st3" d="M96.1,58.8c4,0,7.3,3.3,7.3,7.3s-3.3,7.3-7.3,7.3s-7.3-3.3-7.3-7.3S92,58.8,96.1,58.8 M96.1,58.2
			c-4.4,0-8,3.5-8,8s3.6,8,8,8s8-3.5,8-8C104.1,61.7,100.4,58.2,96.1,58.2L96.1,58.2z"/>
	</g>
</g>
<g>
	<g>
		<circle class="st0" cx="143.9" cy="66.3" r="7.6"/>
		<g>
			<path class="st3" d="M143.9,59c4,0,7.3,3.3,7.3,7.3s-3.3,7.3-7.3,7.3c-4,0-7.3-3.3-7.3-7.3S139.9,59,143.9,59 M143.9,58.3
				c-4.4,0-8,3.5-8,8c0,4.5,3.5,8,8,8c4.5,0,8-3.5,8-8C151.9,61.8,148.3,58.3,143.9,58.3L143.9,58.3z"/>
		</g>
	</g>
</g>
<g>
	<g>
		<ellipse class="st0" cx="120.2" cy="14.8" rx="7.7" ry="7.7"/>
		<path class="st3" d="M120.2,7.4c4,0,7.3,3.3,7.3,7.4s-3.3,7.4-7.3,7.4c-4,0-7.3-3.3-7.3-7.4C112.8,10.8,116.1,7.4,120.2,7.4
			 M120.2,6.8c-4.4,0-8,3.6-8,8s3.6,8,8,8c4.4,0,8-3.6,8-8C128.1,10.4,124.5,6.8,120.2,6.8L120.2,6.8z"/>
	</g>
</g>
</svg>
