<?xml version="1.0" encoding="utf-8"?>
<!-- Generator: Adobe Illustrator 21.0.0, SVG Export Plug-In . SVG Version: 6.00 Build 0)  -->
<svg version="1.1" id="Layer_1" xmlns="http://www.w3.org/2000/svg" xmlns:xlink="http://www.w3.org/1999/xlink" x="0px" y="0px"
	 viewBox="0 0 256 134" style="enable-background:new 0 0 256 134;" xml:space="preserve">
<style type="text/css">
	.st0{fill:url(#SVGID_1_);}
	.st1{fill:#FFFFFF;}
	.st2{fill:url(#SVGID_2_);}
	.st3{fill:url(#SVGID_3_);}
	.st4{fill:#555866;}
</style>
<g>
	<g>
		<g>
			<linearGradient id="SVGID_1_" gradientUnits="userSpaceOnUse" x1="1.9905" y1="94.0828" x2="56.1562" y2="39.9172">
				<stop  offset="0" style="stop-color:#14488A"/>
				<stop  offset="1" style="stop-color:#00AAE5"/>
			</linearGradient>
			<path class="st0" d="M5.6,95.6c-0.6,0-1.1-0.1-1.6-0.3c-0.7-0.2-1.4-0.6-2-1.2c-0.3-0.3-0.6-0.6-0.8-1c-0.5-0.8-0.7-1.7-0.7-2.6
				v-47c0-2.8,2.3-5.1,5.1-5.1h47c1.4,0,2.6,0.5,3.6,1.5c1,0.9,1.5,2.2,1.5,3.6v47c0,2.8-2.3,5.1-5.1,5.1H5.6z"/>
			<path class="st1" d="M52.6,38.9c1.3,0,2.4,0.5,3.2,1.3c0.8,0.8,1.3,2,1.3,3.2v47c0,2.5-2.1,4.6-4.6,4.6h-47c-0.5,0-1-0.1-1.5-0.2
				c-0.7-0.2-1.3-0.6-1.8-1.1c-0.3-0.3-0.5-0.6-0.7-0.9C1.2,92.2,1,91.4,1,90.5v-47c0-2.5,2-4.6,4.6-4.6H52.6 M52.6,37.9h-47
				c-3.1,0-5.6,2.5-5.6,5.6v47c0,1,0.3,2,0.8,2.9c0.2,0.4,0.5,0.8,0.9,1.1c0.6,0.6,1.4,1.1,2.2,1.3c0.5,0.2,1.1,0.3,1.8,0.3h47
				c3.1,0,5.6-2.5,5.6-5.6v-47c0-1.5-0.6-2.9-1.6-4C55.5,38.5,54,37.9,52.6,37.9L52.6,37.9z"/>
		</g>
		<linearGradient id="SVGID_2_" gradientUnits="userSpaceOnUse" x1="4.126" y1="74.821" x2="57.1465" y2="74.821">
			<stop  offset="0" style="stop-color:#97191A"/>
			<stop  offset="1" style="stop-color:#EC1C1A"/>
		</linearGradient>
		<path class="st2" d="M57.1,54.6v35.9c0,2.5-2.1,4.6-4.6,4.6h-47c-0.5,0-1-0.1-1.5-0.2C18.5,81.9,36.4,65.7,57.1,54.6z"/>
		<linearGradient id="SVGID_3_" gradientUnits="userSpaceOnUse" x1="-11.3236" y1="79.8656" x2="34.5724" y2="33.9697">
			<stop  offset="0" style="stop-color:#97191A"/>
			<stop  offset="1" style="stop-color:#EC1C1A"/>
		</linearGradient>
		<path class="st3" d="M39.5,38.9C35.9,49.4,11.1,82.2,1.6,92.8C1.2,92.2,1,91.4,1,90.5v-47c0-2.5,2-4.6,4.6-4.6H39.5z"/>
		<g>
			<path class="st1" d="M36.6,56.7c-0.2,0.2-3.6,3.6-3.8,3.8L17.7,55c-0.3-0.1-0.6,0-0.8,0.2l-1.1,1.1c-0.1,0.2-0.2,0.4-0.2,0.6
				c0,0.2,0.1,0.3,0.2,0.5c0,0,0,0,0.1,0.1l11.6,8.8c-3.4,3.7-6.6,7.5-8.4,9.9l-3.4-0.9c-0.2-0.1-0.4,0-0.5,0.1l-0.3,0.3
				c-0.1,0.1-0.2,0.3-0.2,0.4c0,0.1,0.1,0.3,0.2,0.3c0,0,0,0,0.1,0.1l2.5,1.8c0.1,0.1,0.2,0.1,0.2,0.1c0,0.1,0,0.2,0.1,0.2l1.8,2.5
				c0,0,0,0.1,0.1,0.1c0.1,0.1,0.2,0.1,0.3,0.2c0.2,0,0.3,0,0.4-0.2l0.3-0.3c0.1-0.1,0.2-0.3,0.1-0.5L20,77c2.3-1.8,6.2-5,9.9-8.4
				l8.8,11.6c0,0,0,0.1,0.1,0.1c0.1,0.1,0.3,0.2,0.5,0.2c0.2,0,0.4-0.1,0.6-0.2l1.1-1.1c0.2-0.2,0.3-0.5,0.2-0.8l0,0l-5.5-15.1
				c0.2-0.2,3.6-3.6,3.8-3.8c3.8-3.8,2.6-3.2,3.5-4.8c0.2-0.3,0.3-0.6,0.4-0.8c0.2-0.6,0.2-1,0.1-1.1c-0.2-0.2-0.5-0.2-1.1,0.1
				c-0.2,0.1-0.5,0.2-0.8,0.4C39.8,54.1,40.4,52.9,36.6,56.7 M41,78.4"/>
			<path class="st1" d="M50.7,65.7c0,0-1.1,0.3-2,1.2c0,10.8-8.7,19.5-19.5,19.6l1.4-1.4c0.1-0.1,0.2-0.2,0.1-0.4l-0.2-2.1l-4.4,4.4
				c-0.2,0.2-0.2,0.5,0,0.7l4.4,4.3l0.2-1.7c0-0.1,0-0.3-0.1-0.4l-1.4-1.4c11.9-0.1,21.5-9.8,21.5-21.6C50.7,67,50.7,66.7,50.7,65.7
				z"/>
			<path class="st1" d="M7.4,68.3c0,0,1.1-0.3,2-1.2c0-10.8,8.7-19.5,19.5-19.6l-1.4,1.4c-0.1,0.1-0.2,0.2-0.1,0.4l0.2,2.1l4.4-4.4
				c0.2-0.2,0.2-0.5,0-0.7l-4.4-4.3l-0.2,1.7c0,0.1,0,0.3,0.1,0.4l1.4,1.4C17,45.5,7.4,55.1,7.4,67C7.4,67,7.4,67.3,7.4,68.3z"/>
			<path class="st1" d="M8.4,68"/>
		</g>
	</g>
	<g>
		<path class="st4" d="M83.5,74.1v15.5c0,0.4-0.3,0.8-0.8,0.8H72.1c-0.4,0-0.8-0.3-0.8-0.8V44.3c0-0.4,0.3-0.8,0.8-0.8h18
			c2.9,0,5.4,0.4,7.6,1.2c2.2,0.8,4,2,5.3,3.5c1.4,1.5,2.4,3.3,3.1,5.2c0.7,2,1,4.2,1,6.7c0,1.7-0.2,3.3-0.5,4.7
			c-0.4,1.5-0.9,2.8-1.6,3.9c-0.7,1.2-1.5,2.2-2.5,3.1c-1,0.9-2.1,1.6-3.3,2.2l0,0.1l9.8,15c0.3,0.5,0,1.2-0.6,1.2H95.7
			c-0.3,0-0.5-0.1-0.7-0.4L84.9,73.7C84.5,73.1,83.5,73.3,83.5,74.1z M83.5,64.5c0,0.4,0.3,0.8,0.8,0.8h3c2.1,0,3.7-0.5,5-1.4
			c1.3-0.9,1.9-2.2,1.9-4c0-1.5-0.6-2.8-1.8-3.8c-1.2-1-2.9-1.5-5.1-1.5h-3c-0.4,0-0.8,0.3-0.8,0.8V64.5z"/>
		<path class="st4" d="M133.3,58.9h-0.1l-9.6,31c-0.1,0.3-0.4,0.5-0.7,0.5h-11.5c-0.5,0-0.9-0.5-0.7-1L127,44.1
			c0.1-0.3,0.4-0.5,0.7-0.5h10.9c0.3,0,0.6,0.2,0.7,0.5l16.4,45.3c0.2,0.5-0.2,1-0.7,1h-11.4c-0.3,0-0.6-0.2-0.7-0.5L133.3,58.9z"/>
		<path class="st4" d="M158.8,44.3c0-0.4,0.3-0.8,0.8-0.8H177c2.3,0,4.4,0.3,6.3,0.8c1.9,0.5,3.5,1.3,4.8,2.3c1.3,1,2.4,2.2,3.3,3.6
			c0.9,1.4,1.6,2.9,2,4.6c0.4,1.7,0.6,3.5,0.6,5.4c0,3.5-0.7,6.4-2.2,8.8c-1.5,2.4-3.5,4.2-6.2,5.4c-2.6,1.2-5.8,1.7-9.4,1.7h-4.5
			c-0.4,0-0.8,0.3-0.8,0.8v12.8c0,0.4-0.3,0.8-0.8,0.8h-10.6c-0.4,0-0.8-0.3-0.8-0.8V44.3z M174.2,65.3c2.1,0,3.7-0.5,4.9-1.4
			c1.2-0.9,1.9-2.2,1.9-4c0-1.5-0.6-2.8-1.8-3.8c-1.2-1-2.8-1.5-5-1.5H171v10.7H174.2z"/>
		<path class="st4" d="M197.2,43.6h11.2c0.4,0,0.8,0.3,0.8,0.8v45.3c0,0.4-0.3,0.8-0.8,0.8h-11.2c-0.4,0-0.8-0.3-0.8-0.8V44.3
			C196.4,43.9,196.7,43.6,197.2,43.6z"/>
		<path class="st4" d="M213.8,44.3c0-0.4,0.3-0.8,0.8-0.8h16.1c3.6,0,7,0.6,10,1.7c3,1.2,5.6,2.8,7.7,4.8c2.1,2.1,3.7,4.5,4.9,7.4
			c1.1,2.9,1.7,6.1,1.7,9.5c0,3.4-0.5,6.6-1.6,9.4c-1.1,2.9-2.7,5.3-4.7,7.4c-2,2.1-4.6,3.7-7.6,4.8c-3,1.1-6.4,1.7-10.2,1.7h-16.3
			c-0.4,0-0.8-0.3-0.8-0.8V44.3z M230.1,79.3c2.3,0,4.4-0.5,6.2-1.6c1.8-1.1,3.2-2.6,4.2-4.4c1-1.8,1.4-3.9,1.4-6.1
			c0-1.7-0.3-3.3-0.9-4.9c-0.6-1.5-1.3-2.8-2.3-3.9c-1.6-1.8-3.7-3-6.3-3.5c-0.1,0-0.1,0-0.2,0l-5.5,0c-0.4,0-0.8,0.3-0.8,0.8v23
			c0,0.4,0.3,0.8,0.8,0.8H230.1z"/>
	</g>
</g>
</svg>
