<?xml version="1.0" encoding="utf-8"?>
<!-- Generator: Adobe Illustrator 23.0.3, SVG Export Plug-In . SVG Version: 6.00 Build 0)  -->
<svg version="1.1" id="Capa_1" xmlns="http://www.w3.org/2000/svg" xmlns:xlink="http://www.w3.org/1999/xlink" x="0px" y="0px"
	 viewBox="0 0 400.2 400.2" style="enable-background:new 0 0 400.2 400.2;" xml:space="preserve">
<style type="text/css">
	.st0{fill:#FFE2B2;}
	.st1{fill:#FFA000;}
</style>
<g>
	<g>
		<g>
			<path class="st0" d="M202.7,392.5c-9.9-0.9-18.3-8.2-25.1-21.8c-7.1-14.1-10.7-29.8-10.7-46.7l0-56.3L19.7,175.5
				c-1.3-0.8-2.7-2-2.4-5.3l5.5-38.2l0-0.1c0.1-0.9,0.6-1.8,1.5-2.7c0.3-0.3,0.6-0.5,0.7-0.6l0.1-0.1l0.1-0.1
				c0.9-0.6,1.7-0.9,2.6-0.9c0.5,0,1,0.1,1.5,0.3l0.1,0L167,168l0-93.2l-43.4-24.8c-1.8-1-2.6-2.4-2.7-4.6l0-32.7
				c0-1.4,0.5-2.6,1.7-3.7l0.2-0.2c1.2-0.9,2.4-1.3,3.8-1.3c0.2,0,0.4,0,0.6,0l75.5,10.8l75.7-10.8l0.1,0c0.3-0.1,0.6-0.1,0.8-0.1
				c1,0,2.1,0.4,3.2,1.3c1,0.9,1.6,2.2,1.8,4l0.2,32.8c0,1.4-0.5,2.5-1.7,3.7c-0.4,0.4-0.6,0.6-0.7,0.6l-0.1,0l-43.6,24.9V168
				l137.5-40c0.5-0.1,1.1-0.2,1.6-0.2c1.1,0,2.2,0.3,3.2,1c1.4,1.1,2,2.4,2,4.1l0,43.7c-0.1,2.7-1.3,3.7-2.4,4.3l-0.1,0.1L238.4,268
				l0,56c0,16.8-3.6,32.5-10.7,46.7C221,384.2,212.5,391.6,202.7,392.5z"/>
			<path class="st1" d="M279.3,10c0.5,0,1.1,0.4,1.6,0.7c0.3,0.2,0.7,0.8,0.9,2.2l0.2,32.7c0,0.5-0.1,1.1-0.9,1.9
				c-0.1,0.1-0.2,0.2-0.3,0.3l-0.2,0.1L238.4,72l-2.5,1.4v2.9v88.4v6.7l6.4-1.9l134.2-39.1c0.3-0.1,0.7-0.1,1-0.1
				c0.4,0,0.9,0.1,1.7,0.6c0.8,0.7,1,1.3,1,2.1l0,43.6c-0.1,1.6-0.7,1.9-1.1,2.2l-0.2,0.1l-0.1,0.1l-140.6,86.3l-2.4,1.5l0,2.8
				l0,54.6c0,16.4-3.5,31.7-10.4,45.5c-6.4,12.8-13.9,19.5-22.8,20.4c-9-0.9-16.4-7.6-22.8-20.4c-6.9-13.8-10.4-29.1-10.4-45.5
				l0-54.9l0-2.8l-2.3-1.5l-146-91.4l-0.1,0l-0.1,0c-0.6-0.4-1.3-0.8-1.1-2.8l5.4-38.1l0-0.2l0-0.2c0-0.1,0.2-0.5,0.8-1.1
				c0.1-0.1,0.1-0.1,0.1-0.1l0.2-0.1l0.3-0.2c0.7-0.5,1.1-0.5,1.2-0.5c0.2,0,0.4,0,0.6,0.1l0.2,0.1l0.2,0l134.3,39.1l6.4,1.9l0-6.7
				l0-88.4l0-2.9l-2.5-1.4l-42.1-24.1l0,0l0,0c-0.7-0.4-1.2-0.8-1.3-2.4l0-32.6c0-0.5,0.1-1.1,0.9-1.9l0.1-0.1
				c0.9-0.7,1.7-0.7,2.2-0.7c0.1,0,0.2,0,0.3,0L202,20.9l0.7,0.1l0.7-0.1l75.2-10.8l0.2,0l0.2,0C279.1,10,279.2,10,279.3,10
				 M279.3,5c-0.5,0-0.9,0.1-1.4,0.2l-75.2,10.8L127.4,5.2c-0.3,0-0.6,0-0.9,0c-1.9,0-3.7,0.6-5.4,1.9l-0.3,0.3
				c-1.6,1.6-2.4,3.4-2.4,5.5l0,32.8c0.1,3.1,1.4,5.3,3.9,6.7l42.1,24.1l0,88.4L30.2,125.6c-0.8-0.3-1.6-0.4-2.4-0.4
				c-1.3,0-2.7,0.4-3.9,1.3c-0.5,0.2-0.9,0.6-1.4,1c-1.4,1.4-2.1,2.8-2.2,4.3L14.8,170c-0.3,3.5,0.9,6.1,3.6,7.7l146,91.4l0,54.9
				c0,17.3,3.6,33.2,10.9,47.8c7.3,14.6,16.4,22.3,27.3,23.2c10.9-0.9,20-8.6,27.3-23.2c7.3-14.6,10.9-30.5,10.9-47.8l0-54.6
				l140.6-86.3c2.4-1.3,3.6-3.4,3.8-6.5l0-43.7c0-2.5-1-4.6-3.1-6.1c-1.5-1-3-1.5-4.7-1.5c-0.8,0-1.5,0.1-2.3,0.3l-134.3,39.1V76.3
				L283,52.2c0.3-0.1,0.9-0.5,1.5-1.2c1.6-1.6,2.4-3.4,2.4-5.5l-0.2-32.9c-0.2-2.5-1.1-4.4-2.7-5.8C282.5,5.6,280.9,5,279.3,5
				L279.3,5z"/>
		</g>
	</g>
</g>
</svg>
