<?xml version="1.0" encoding="utf-8"?>
<!-- Generator: Adobe Illustrator 23.0.2, SVG Export Plug-In . SVG Version: 6.00 Build 0)  -->
<svg version="1.1" id="Layer_1" xmlns="http://www.w3.org/2000/svg" xmlns:xlink="http://www.w3.org/1999/xlink" x="0px" y="0px"
	 viewBox="0 0 64 64" style="enable-background:new 0 0 64 64;" xml:space="preserve">
<style type="text/css">
	.st0{fill:#C7C7C7;}
	.st1{fill:#F7F7F7;}
	.st2{fill:#353535;}
	.st3{fill:#DBDBDB;}
	.st4{fill:#D6D6D6;}
	.st5{fill:#FFFFFF;}
	.st6{fill:#F2F2F2;}
</style>
<title>Flight</title>
<g>
	<g>
		<path class="st0" d="M35.8,43.8c-0.1-0.9-2-1.4-2,0.8c-0.7,2.3,0.7-7.4,0.9-6.6c0.1,0.9,0.9-0.7,0.8-0.7
			C36.1,39.5,36.2,41.7,35.8,43.8z"/>
		<ellipse class="st1" cx="36.5" cy="40.6" rx="1.8" ry="3.9"/>
		<path class="st2" d="M37.7,38.1c0-0.2-0.1-0.4-0.2-0.6h-2.1l-0.2,0.6H37.7z"/>
		<path class="st2" d="M35.3,43.1c0.1,0.2,0.1,0.5,0.2,0.8h2.1c0.1-0.3,0.1-0.5,0.2-0.8H35.3z"/>
		<path class="st3" d="M37.6,37.4h-0.7v6.4h0.7C38.2,41.7,38.2,39.5,37.6,37.4z"/>
		<path class="st0" d="M28.2,43.8c0.1-0.9,2-1.4,2,0.8c0.7,2.3-0.7-7.4-0.9-6.6c-0.1,0.9-0.9-0.7-0.8-0.7
			C27.9,39.5,27.8,41.7,28.2,43.8z"/>
		<path class="st4" d="M41,34.8c0,0.3-0.3,0.4-0.5,0.4c-0.2,0-0.4-0.2-0.4-0.4l-0.5-6.4c0-0.5,0.4-0.9,0.9-0.9c0,0,0,0,0,0l0,0
			c0.5,0,0.9,0.4,0.9,0.9c0,0,0,0,0,0L41,34.8z"/>
		<path class="st4" d="M23,34.8c0,0.3,0.3,0.4,0.5,0.4c0.2,0,0.4-0.2,0.4-0.4l0.5-6.4c0-0.5-0.4-0.9-0.9-0.9l0,0
			c-0.5,0-0.9,0.4-0.9,0.9c0,0,0,0,0,0L23,34.8z"/>
		<path class="st1" d="M26.4,43.8h2.1c0.6-2.1,0.6-4.3,0-6.4h-2.1C25.8,39.5,25.8,41.7,26.4,43.8z"/>
		<path class="st2" d="M26.2,43.1c0.1,0.2,0.1,0.5,0.2,0.8h2.1c0.1-0.3,0.1-0.5,0.2-0.8H26.2z"/>
		<path class="st2" d="M28.7,38.1l-0.2-0.6h-2.1c-0.1,0.2-0.1,0.4-0.2,0.6H28.7z"/>
		<path class="st3" d="M28.5,37.4h-0.7c0,0.1,0.1,0.2,0.1,0.3v6.1h0.6C29.1,41.7,29.1,39.5,28.5,37.4z"/>
		<path class="st2" d="M34.2,42.4l-1.8,10.3c0,0.3-0.2,0.5-0.5,0.5c-0.3,0-0.5-0.2-0.5-0.5l-1.8-10.3c-0.3-1.7-0.4-3.4-0.4-5.2V13.6
			c0-1.1,0.1-2.1,0.2-3.2c0.4-2.7,1.2-7.6,2.4-7.6c1.2,0,2.1,4.9,2.4,7.6c0.1,1.1,0.2,2.2,0.2,3.2v23.7C34.6,39,34.5,40.7,34.2,42.4
			z"/>
		<path class="st3" d="M34.2,40.4l-1.8,9.1c-0.1,0.3-0.3,0.4-0.6,0.3c-0.2,0-0.3-0.2-0.3-0.3l-1.8-9.1c-0.3-1.5-0.4-3-0.4-4.5V15
			c0-0.9,0.1-1.9,0.2-2.8c0.4-2.4,1.2-6.7,2.4-6.7c1.2,0,2.1,4.3,2.4,6.7c0.1,0.9,0.2,1.9,0.2,2.8v20.9
			C34.6,37.4,34.5,38.9,34.2,40.4z"/>
		<path class="st1" d="M30.1,42.1c-0.3-1.6-0.5-3.3-0.5-5V13.4c0-1,0.1-2.1,0.3-3.1C30.7,5.8,31.5,4,32,3.5c0.5,0.5,1.3,2.4,2.1,6.8
			c0.2,1,0.3,2.1,0.3,3.1v23.8c0,1.7-0.2,3.4-0.5,5L32,50.8L30.1,42.1z"/>
		<polygon class="st2" points="32.9,49.8 32,49.8 31.1,49.8 22.5,58.4 22.5,61.1 32,57 41.5,61.1 41.5,58.4 		"/>
		<polygon class="st4" points="31.7,51.3 32.3,51.3 39.7,58.7 32,55.3 24.3,58.7 		"/>
		<polygon class="st1" points="23.3,58.7 31.4,50.6 32.6,50.6 40.7,58.7 40.7,60 32,56.1 23.3,60 		"/>
		<path class="st5" d="M32,59.9l-0.6-16.3c0-0.3,0.2-0.6,0.6-0.6h0l0,0c0.3,0,0.6,0.2,0.6,0.6l0,0L32,59.9z"/>
		<path class="st0" d="M58,40.8c0,0.1,0.1,0.2,0.2,0.1c0.1,0,0.1-0.1,0.1-0.1l0.2-2.6c0-0.2-0.2-0.4-0.4-0.4l0,0
			c-0.2,0-0.4,0.2-0.4,0.4c0,0,0,0,0,0L58,40.8z"/>
		<path class="st0" d="M54.9,39.3c0,0.1,0.1,0.2,0.2,0.1c0.1,0,0.1-0.1,0.1-0.1l0.2-2.6c0-0.2-0.2-0.4-0.4-0.4l0,0
			c-0.2,0-0.4,0.2-0.4,0.4L54.9,39.3z"/>
		<path class="st0" d="M38,32.9c0,0.1,0.1,0.2,0.2,0.2c0.1,0,0.2-0.1,0.2-0.2l0.2-2.6c0-0.2-0.2-0.3-0.3-0.4l0,0
			c-0.2,0-0.4,0.2-0.4,0.4L38,32.9z"/>
		<path class="st2" d="M63.4,38.9v3.7l-18.5-8.7l0,0l-0.5-0.3c-1.9-0.9-3.9-1.3-6-1.3h-1.5c-0.6,0-1.1,0.2-1.5,0.5l-0.7,0.6V15.9
			L63,38.2C63.3,38.4,63.4,38.6,63.4,38.9z"/>
		<path class="st4" d="M62.7,38.9v2.5l-17.8-7.5l0,0l-0.5-0.3c-1.9-0.9-3.9-1.3-6-1.3h-1.5c-0.6,0-1.1,0.2-1.5,0.5l-0.7,0.6V16.4
			l28,22.4C62.6,38.8,62.7,38.8,62.7,38.9z"/>
		<path class="st6" d="M44.7,32.9c-2-0.9-4.1-1.4-6.3-1.4h-1.5c-0.8,0.2-1.5,0.5-2.2,0.9l0.2-15.5l27.8,21.9c0,0,0.1,0.1,0.1,0.1
			v2.5L44.7,32.9z"/>
		<path class="st0" d="M6,40.8c0,0.1-0.1,0.2-0.2,0.1c-0.1,0-0.1-0.1-0.1-0.1l-0.2-2.6c0-0.2,0.2-0.4,0.4-0.4l0,0
			c0.2,0,0.4,0.2,0.4,0.4c0,0,0,0,0,0L6,40.8z"/>
		<path class="st0" d="M9.1,39.3c0,0.1-0.1,0.2-0.2,0.1c-0.1,0-0.1-0.1-0.1-0.1l-0.2-2.6c0-0.2,0.2-0.4,0.4-0.4l0,0
			c0.2,0,0.4,0.2,0.4,0.4L9.1,39.3z"/>
		<path class="st0" d="M26,32.9c0,0.1-0.1,0.2-0.2,0.2c-0.1,0-0.2-0.1-0.2-0.2l-0.2-2.6c0-0.2,0.2-0.3,0.3-0.4l0,0
			c0.2,0,0.4,0.2,0.4,0.4v0L26,32.9z"/>
		<path class="st2" d="M0.6,42.6l19.1-9c1.9-0.9,3.9-1.3,6-1.3h1.5c0.6,0,1.1,0.2,1.5,0.5l0.7,0.6V15.9L1,38.2
			c-0.2,0.2-0.4,0.4-0.4,0.7L0.6,42.6z"/>
		<path class="st4" d="M1.3,38.9v2.5l17.8-7.5l0,0l0.5-0.2c1.9-0.9,3.9-1.3,6-1.3h1.5c0.6,0,1.1,0.2,1.5,0.5l0.7,0.6V16.4L1.4,38.7
			C1.4,38.8,1.3,38.8,1.3,38.9z"/>
		<path class="st6" d="M1.3,38.9c0-0.1,0-0.1,0.1-0.1l28-22.1l-0.2,15.6c-0.6-0.4-1.3-0.6-2.1-0.7h-1.5c-2.2,0-4.3,0.5-6.3,1.4
			l-18,8.5V38.9z"/>
		<path class="st4" d="M32.6,8.7c-0.4-0.2-0.8-0.2-1.1,0c-1.2,0.6-1.5,2.7-1.5,2.7v1c0.4-1.1,1.7-1.7,2.9-1.3
			c0.6,0.2,1.1,0.7,1.3,1.3v-1C34.1,11.4,33.8,9.3,32.6,8.7z"/>
		<path class="st4" d="M30.3,34.5c0-0.8-0.2-1.4-0.4-1.4s-0.4,0.6-0.4,1.4c0,0.8,0.2,1.4,0.4,1.4S30.3,35.3,30.3,34.5z"/>
		<path class="st4" d="M30.3,29.8c0-0.8-0.2-1.4-0.4-1.4s-0.4,0.6-0.4,1.4s0.2,1.4,0.4,1.4S30.3,30.6,30.3,29.8z"/>
		<path class="st4" d="M30.3,25.1c0-0.8-0.2-1.4-0.4-1.4s-0.4,0.6-0.4,1.4c0,0.8,0.2,1.4,0.4,1.4S30.3,25.9,30.3,25.1z"/>
		<path class="st4" d="M30.3,20.5c0-0.8-0.2-1.4-0.4-1.4s-0.4,0.6-0.4,1.4s0.2,1.4,0.4,1.4S30.3,21.2,30.3,20.5z"/>
		<path class="st4" d="M30.3,15.8c0-0.8-0.2-1.4-0.4-1.4s-0.4,0.6-0.4,1.4s0.2,1.4,0.4,1.4S30.3,16.5,30.3,15.8z"/>
		<path class="st4" d="M33.7,34.5c0-0.8,0.2-1.4,0.4-1.4c0.2,0,0.4,0.6,0.4,1.4c0,0.8-0.2,1.4-0.4,1.4
			C33.8,35.9,33.7,35.3,33.7,34.5z"/>
		<path class="st4" d="M33.7,29.8c0-0.8,0.2-1.4,0.4-1.4c0.2,0,0.4,0.6,0.4,1.4s-0.2,1.4-0.4,1.4C33.8,31.3,33.7,30.6,33.7,29.8z"/>
		<path class="st4" d="M33.7,25.1c0-0.8,0.2-1.4,0.4-1.4c0.2,0,0.4,0.6,0.4,1.4c0,0.8-0.2,1.4-0.4,1.4
			C33.8,26.6,33.7,25.9,33.7,25.1z"/>
		<path class="st4" d="M33.7,20.5c0-0.8,0.2-1.4,0.4-1.4c0.2,0,0.4,0.6,0.4,1.4s-0.2,1.4-0.4,1.4C33.8,21.9,33.7,21.2,33.7,20.5z"/>
		<path class="st4" d="M33.7,15.8c0-0.8,0.2-1.4,0.4-1.4c0.2,0,0.4,0.6,0.4,1.4s-0.2,1.4-0.4,1.4C33.8,17.2,33.7,16.5,33.7,15.8z"/>
	</g>
</g>
</svg>
