<svg id="Layer_1" data-name="Layer 1" xmlns="http://www.w3.org/2000/svg" viewBox="0 0 64 64"><defs><style>.cls-1{fill:#c7c7c7;}.cls-2{fill:#f7f7f7;}.cls-3{fill:#353535;}.cls-4{fill:#dbdbdb;}.cls-5{fill:#d6d6d6;}.cls-6{fill:#fff;}.cls-7{fill:#f2f2f2;}</style></defs><title>Flight-03</title><path class="cls-1" d="M28.2,20.1c.1.9,2,1.4,2-.8.7-2.3-.7,7.4-.9,6.6s-.9.7-.8.7A14.38,14.38,0,0,1,28.2,20.1Z"/><ellipse class="cls-2" cx="27.5" cy="23.3" rx="1.8" ry="3.9"/><path class="cls-3" d="M26.3,25.8a1.42,1.42,0,0,0,.2.6h2.1l.2-.6Z"/><path class="cls-3" d="M28.7,20.8c-.1-.2-.1-.5-.2-.8H26.4c-.1.3-.1.5-.2.8Z"/><path class="cls-4" d="M26.4,26.5h.7V20.1h-.7A11.6,11.6,0,0,0,26.4,26.5Z"/><path class="cls-1" d="M35.8,20.1c-.1.9-2,1.4-2-.8-.7-2.3.7,7.4.9,6.6s.9.7.8.7A14.38,14.38,0,0,0,35.8,20.1Z"/><path class="cls-5" d="M23,29.1c0-.3.3-.4.5-.4a.43.43,0,0,1,.4.4l.5,6.4a.9.9,0,0,1-.9.9h0a.9.9,0,0,1-.9-.9h0Z"/><path class="cls-5" d="M41,29.1c0-.3-.3-.4-.5-.4a.43.43,0,0,0-.4.4l-.5,6.4a.9.9,0,0,0,.9.9h0a.9.9,0,0,0,.9-.9h0Z"/><path class="cls-2" d="M37.6,20.1H35.5a11.6,11.6,0,0,0,0,6.4h2.1A11.6,11.6,0,0,0,37.6,20.1Z"/><path class="cls-3" d="M37.8,20.8c-.1-.2-.1-.5-.2-.8H35.5c-.1.3-.1.5-.2.8Z"/><path class="cls-3" d="M35.3,25.8l.2.6h2.1c.1-.2.1-.4.2-.6Z"/><path class="cls-4" d="M35.5,26.5h.7c0-.1-.1-.2-.1-.3V20.1h-.6A11.6,11.6,0,0,0,35.5,26.5Z"/><path class="cls-3" d="M29.8,21.5l1.8-10.3a.5.5,0,1,1,1,0l1.8,10.3a29.61,29.61,0,0,1,.4,5.2V50.3c0,1.1-.1,2.1-.2,3.2-.4,2.7-1.2,7.6-2.4,7.6s-2.1-4.9-2.4-7.6c-.1-1.1-.2-2.2-.2-3.2V26.6A17.47,17.47,0,0,1,29.8,21.5Z"/><path class="cls-4" d="M29.8,23.5l1.8-9.1a.42.42,0,0,1,.6-.3.32.32,0,0,1,.3.3l1.8,9.1a22.82,22.82,0,0,1,.4,4.5V48.9a26.35,26.35,0,0,1-.2,2.8c-.4,2.4-1.2,6.7-2.4,6.7s-2.1-4.3-2.4-6.7a26.35,26.35,0,0,1-.2-2.8V28A17.06,17.06,0,0,1,29.8,23.5Z"/><path class="cls-2" d="M33.9,21.8a27.34,27.34,0,0,1,.5,5V50.5a16.28,16.28,0,0,1-.3,3.1c-.8,4.5-1.6,6.3-2.1,6.8-.5-.5-1.3-2.4-2.1-6.8a16.28,16.28,0,0,1-.3-3.1V26.7a27.34,27.34,0,0,1,.5-5L32,13.1Z"/><polygon class="cls-3" points="31.1 14.1 32 14.1 32.9 14.1 41.5 5.5 41.5 2.8 32 6.9 22.5 2.8 22.5 5.5 31.1 14.1"/><polygon class="cls-5" points="32.3 12.6 31.7 12.6 24.3 5.2 32 8.6 39.7 5.2 32.3 12.6"/><polygon class="cls-2" points="40.7 5.2 32.6 13.3 31.4 13.3 23.3 5.2 23.3 3.9 32 7.8 40.7 3.9 40.7 5.2"/><path class="cls-6" d="M32,4l.6,16.3a.58.58,0,0,1-.6.6h0a.58.58,0,0,1-.6-.6h0Z"/><path class="cls-1" d="M6,23.1c0-.1-.1-.2-.2-.1a.1.1,0,0,0-.1.1l-.2,2.6a.43.43,0,0,0,.4.4h0a.43.43,0,0,0,.4-.4h0Z"/><path class="cls-1" d="M9.1,24.6c0-.1-.1-.2-.2-.1a.1.1,0,0,0-.1.1l-.2,2.6a.43.43,0,0,0,.4.4H9a.43.43,0,0,0,.4-.4Z"/><path class="cls-1" d="M26,31a.2.2,0,1,0-.4,0l-.2,2.6c0,.2.2.3.3.4h0a.43.43,0,0,0,.4-.4Z"/><path class="cls-3" d="M.6,25V21.3L19.1,30h0l.5.3a13.8,13.8,0,0,0,6,1.3h1.5a2.46,2.46,0,0,0,1.5-.5l.7-.6V48L1,25.7A.75.75,0,0,1,.6,25Z"/><path class="cls-5" d="M1.3,25V22.5L19.1,30h0l.5.3a13.8,13.8,0,0,0,6,1.3h1.5a2.46,2.46,0,0,0,1.5-.5l.7-.6v17L1.3,25.1C1.4,25.1,1.3,25.1,1.3,25Z"/><path class="cls-7" d="M19.3,31a15.23,15.23,0,0,0,6.3,1.4h1.5a8.49,8.49,0,0,0,2.2-.9L29.1,47,1.3,25.1,1.2,25V22.5Z"/><path class="cls-1" d="M58,23.1c0-.1.1-.2.2-.1a.1.1,0,0,1,.1.1l.2,2.6a.43.43,0,0,1-.4.4h0a.43.43,0,0,1-.4-.4h0Z"/><path class="cls-1" d="M54.9,24.6c0-.1.1-.2.2-.1a.1.1,0,0,1,.1.1l.2,2.6a.43.43,0,0,1-.4.4h0a.43.43,0,0,1-.4-.4Z"/><path class="cls-1" d="M38,31a.2.2,0,1,1,.4,0l.2,2.6c0,.2-.2.3-.3.4h0a.43.43,0,0,1-.4-.4h0Z"/><path class="cls-3" d="M63.4,21.3l-19.1,9a13.8,13.8,0,0,1-6,1.3H36.8a2.46,2.46,0,0,1-1.5-.5l-.7-.6V48L63,25.7a1,1,0,0,0,.4-.7Z"/><path class="cls-5" d="M62.7,25V22.5L44.9,30h0l-.5.2a13.8,13.8,0,0,1-6,1.3H36.9a2.46,2.46,0,0,1-1.5-.5l-.7-.6V47.5L62.6,25.2C62.6,25.1,62.7,25.1,62.7,25Z"/><path class="cls-7" d="M62.7,25h0L34.6,47.2l.2-15.6a4.76,4.76,0,0,0,2.1.7h1.5a15.23,15.23,0,0,0,6.3-1.4l18-8.5Z"/><path class="cls-5" d="M31.4,55.2a1.08,1.08,0,0,0,1.1,0c1.2-.6,1.5-2.7,1.5-2.7v-1a2.3,2.3,0,0,1-2.9,1.3,2.1,2.1,0,0,1-1.3-1.3v1C29.9,52.5,30.2,54.6,31.4,55.2Z"/><path class="cls-5" d="M33.7,29.4c0,.8.2,1.4.4,1.4s.4-.6.4-1.4-.2-1.4-.4-1.4S33.7,28.6,33.7,29.4Z"/><path class="cls-5" d="M33.7,34.1c0,.8.2,1.4.4,1.4s.4-.6.4-1.4-.2-1.4-.4-1.4S33.7,33.3,33.7,34.1Z"/><path class="cls-5" d="M33.7,38.8c0,.8.2,1.4.4,1.4s.4-.6.4-1.4-.2-1.4-.4-1.4S33.7,38,33.7,38.8Z"/><path class="cls-5" d="M33.7,43.4c0,.8.2,1.4.4,1.4s.4-.6.4-1.4-.2-1.4-.4-1.4S33.7,42.7,33.7,43.4Z"/><path class="cls-5" d="M33.7,48.1c0,.8.2,1.4.4,1.4s.4-.6.4-1.4-.2-1.4-.4-1.4S33.7,47.4,33.7,48.1Z"/><path class="cls-5" d="M30.3,29.4c0,.8-.2,1.4-.4,1.4s-.4-.6-.4-1.4.2-1.4.4-1.4S30.3,28.6,30.3,29.4Z"/><path class="cls-5" d="M30.3,34.1c0,.8-.2,1.4-.4,1.4s-.4-.6-.4-1.4.2-1.4.4-1.4S30.3,33.3,30.3,34.1Z"/><path class="cls-5" d="M30.3,38.8c0,.8-.2,1.4-.4,1.4s-.4-.6-.4-1.4.2-1.4.4-1.4S30.3,38,30.3,38.8Z"/><path class="cls-5" d="M30.3,43.4c0,.8-.2,1.4-.4,1.4s-.4-.6-.4-1.4.2-1.4.4-1.4S30.3,42.7,30.3,43.4Z"/><path class="cls-5" d="M30.3,48.1c0,.8-.2,1.4-.4,1.4s-.4-.6-.4-1.4.2-1.4.4-1.4S30.3,47.4,30.3,48.1Z"/></svg>