<?xml version="1.0" encoding="utf-8"?>
<!-- Generator: Adobe Illustrator 23.0.6, SVG Export Plug-In . SVG Version: 6.00 Build 0)  -->
<svg version="1.1" id="Layer_1" xmlns="http://www.w3.org/2000/svg" xmlns:xlink="http://www.w3.org/1999/xlink" x="0px" y="0px"
	 viewBox="0 0 64 64" style="enable-background:new 0 0 64 64;" xml:space="preserve">
<style type="text/css">
	.st0{fill:#AAAAAA;}
</style>
<title>003</title>
<path class="st0" d="M39.3,17.4l-4.5,2.7l-8.5-4.5l-2.1,1.2l6.5,5.6l-3.7,2.2l-2.3-0.9l-1.9,1.1l2.8,1.9l0.2,3.3l2-1.2l0.3-2.3l0,0
	l3.7-2.1l1.7,8.3l2.1-1.2l0.2-9.4l4.5-2.7c0.5-0.3,0.7-1,0.4-1.5C40.5,17.3,39.8,17.2,39.3,17.4L39.3,17.4L39.3,17.4z"/>
<path class="st0" d="M48.1,6.8c-8.9-8.9-23.3-8.9-32.2,0C11.6,11,9.2,16.8,9.2,22.9c0,3.9,1.2,8.4,3.5,13.5
	c2.2,4.6,4.7,8.9,7.6,13.1c3.4,4.9,7.1,9.5,11.1,13.9l0.6,0.6l0.6-0.6c4-4.4,7.7-9,11.1-13.9c2.9-4.1,5.5-8.5,7.6-13.1
	c2.3-5.1,3.5-9.6,3.5-13.5C54.8,16.8,52.4,11,48.1,6.8z M32,37.8c-8.2,0-14.9-6.7-14.9-14.9S23.8,8.1,32,8.1s14.9,6.7,14.9,14.9v0
	C46.8,31.1,40.2,37.8,32,37.8z"/>
</svg>
