<?xml version="1.0" encoding="utf-8"?>
<!-- Generator: Adobe Illustrator 23.0.3, SVG Export Plug-In . SVG Version: 6.00 Build 0)  -->
<svg version="1.1" id="Layer_1" xmlns="http://www.w3.org/2000/svg" xmlns:xlink="http://www.w3.org/1999/xlink" x="0px" y="0px"
	 viewBox="0 0 1000 200" style="enable-background:new 0 0 1000 200;" xml:space="preserve">
<style type="text/css">
	.st0{fill:#F1011E;}
	.st1{fill:#00BEFF;}
</style>
<g>
	<g>
		<g>
			<g>
				<polygon class="st0" points="221.5,115.4 221.5,115.6 213.7,166.7 247.8,166.7 254.8,116 				"/>
			</g>
			<g>
				<path class="st0" d="M272.7,117.4l5.9,3.8c5.9,3.4,12.4,5.6,19.1,6.4l4,0.5l23.8,33.7l3.4,4.9h-42L258,120.8L272.7,117.4z"/>
			</g>
			<g>
				<path class="st0" d="M325.1,95c0.7-1.8,1.4-3.8,2-5.9c0.8-3,1.5-6.3,2-9.8c0.9-7.8,0.4-14.6-1.3-20.3
					c-1.8-5.8-4.6-10.5-8.6-14.3c-4-3.8-8.8-6.6-14.5-8.5c-5.7-1.9-12-2.8-18.9-2.8h-52.1c-0.7,0-1.3,0.5-1.4,1.2l-8,57.3
					l-20.4,12.5l59.7-8.9l-10.1-39.3l20.7-3.8c4.7-0.8,9.4,1.2,12.1,5.1L307.9,89C307.9,89,313.5,95.5,325.1,95z"/>
			</g>
			<g>
				<polygon class="st0" points="371.1,139.9 359.2,166.7 323,166.7 325.4,161.7 333.3,145.2 				"/>
			</g>
			<g>
				<polygon class="st0" points="448,166.7 411.8,166.7 405.8,135.1 440,130.3 				"/>
			</g>
			<g>
				<path class="st0" d="M428.2,75.9l-28.1,5.2l-0.2-2.3L399,71h-1.3l-3.7,8.8l4.9,1.6l-37.5,7l2-4.1l24.5-50.1
					c0.2-0.5,0.8-0.8,1.3-0.8h28.6c0.7,0,1.3,0.5,1.4,1.1L428.2,75.9z"/>
			</g>
			<g>
				<path class="st0" d="M570.8,81.4c-0.7,6.3-2.4,12.2-5.1,17.9c-2.6,5.7-6.2,10.6-10.7,14.8c-4.5,4.2-9.9,7.5-16.3,10
					c-6.4,2.4-13.5,3.7-21.6,3.7h-21.3l-5.5,39h-33.7l7.4-53.6c0.1-0.4,0.4-0.8,0.9-0.8v0c17.2-3.1,34.1-7.3,50.7-13
					c7.4-2.6,14.8-5.3,21.4-9.6c2.4-1.5,4.6-3.4,6.4-5.5c2.1-2.4,1.7-4.3-0.9-6.2c-1.6-1.1-3.4-2.1-5.2-2.9c-2.2-1-4.6-1.6-6.8-2.7
					c-13.4-7.1-27.9-9.3-42.6-7.2c-5.9,0.8-11.8,1.8-17.6,2.9l4.7-33.5c0.1-0.7,0.7-1.2,1.4-1.2h52.1c8.2,0,15.1,1.4,20.7,4.2
					c5.6,2.7,10.2,6.4,13.6,10.8c2.4,3.2,4.3,6.7,5.6,10.5c0.5,1.6,1,3.2,1.4,4.8C571.2,69.4,571.5,75.3,570.8,81.4z"/>
			</g>
			<g>
				<g>
					<path class="st0" d="M571.9,166.7h33.7l16.3-116.3L624,35c0.1-0.9-0.6-1.7-1.4-1.7h-30.8c-0.7,0-1.3,0.5-1.4,1.2L571.9,166.7z"
						/>
				</g>
			</g>
			<g>
				<g>
					<path class="st0" d="M735.1,57.9c-2.1-5.6-5.3-10.2-9.6-13.8c-4.1-3.5-9.1-6.2-14.9-7.9c-0.2-0.1-0.4-0.1-0.6-0.2
						c-6-1.8-12.4-2.6-19-2.6h-48.7c-0.7,0-1.3,0.5-1.4,1.2l-1.8,13l-16.7,119.1h49.9c6.7,0,13.2-0.9,19.7-2.5
						c6.5-1.7,12.3-4.3,17.6-7.9c5.3-3.6,9.7-8.1,13.4-13.6c3.6-5.5,6-12.1,7.2-19.8l6.4-44.8C737.7,70.2,737.2,63.5,735.1,57.9z
						 M702.6,78l-6.4,44.8c-0.5,3.6-2.5,6.6-6.1,8.9c-3.6,2.3-7.7,3.4-12.4,3.4h-17.2l10-70.2h17.2c4.7,0,8.4,1.3,11.3,3.9
						C701.9,71.2,703.1,74.3,702.6,78z"/>
				</g>
			</g>
			<g>
				<polygon class="st0" points="204,109.4 261.2,109.5 242.5,102.2 				"/>
			</g>
		</g>
	</g>
	<path class="st0" d="M329.5,139.9c-6.5,0.8-11.4-5-11.4-5s7.7-1.9,11.4-2.8c3.9-1,7.9-2,11.8-3c14.1-3.5,85.9-22.9,100.9-26.8
		c0.3-0.1,0.6-0.1,0.9,0.1l13.3,8c0.8,0.4,1.1,1.4,0.6,2.1l-3.7,5.7c-0.2,0.3-0.6,0.6-1,0.6L329.5,139.9z"/>
	<path class="st0" d="M406.3,132.7"/>
	<g>
		<g>
			<path class="st1" d="M825.3,51.5c1.2,0,1.9,0.8,1.7,2l-2,10.8c-0.1,1.1-0.9,1.7-2,1.7h-25.3l-14.1,79.1c-0.1,1.1-0.8,1.7-2,1.7
				h-12.4c-1.2,0-1.9-0.8-1.6-2l14-78.8h-24.9c-1.2,0-1.9-0.8-1.7-2l2-10.8c0.1-1.1,0.8-1.7,2-1.7H825.3z"/>
			<path class="st1" d="M877.9,77.7c1.3,0,1.9,0.9,1.6,2.1l-11.2,61.6c-0.1,0.9-0.7,1.6-1.6,2c-8,3.1-17.2,5.1-25.9,5.1
				c-18.3,0-27.9-12.1-24.5-30.1l6.9-38.9c0.1-0.9,0.9-1.7,2-1.7h11.7c1.3,0,1.9,0.9,1.6,2.1l-7.1,39.7
				c-2.1,11.1,2.4,15.5,10.9,15.5c4.5,0,9.1-1.1,12-2.1l9.7-53.5c0.1-1.1,0.9-1.7,2-1.7H877.9z"/>
			<path class="st1" d="M885.5,146.9c-1.2,0-1.9-0.8-1.7-2l10.9-61.7c0.1-0.9,0.7-1.6,1.6-2c7.3-3.3,15.3-5.1,22.9-5.1
				c4,0,8.1,0.4,12.3,1.1c1.2,0.3,1.7,1.1,1.6,2.3l-1.7,9.6c-0.1,1.2-0.9,1.7-2.3,1.6c-2.8-0.4-6.5-0.7-10.4-0.7
				c-4.1,0-7.9,0.8-10.3,1.9l-9.3,53.3c-0.1,1.1-0.8,1.7-2,1.7H885.5z"/>
			<path class="st1" d="M932.9,146.9c-1.2,0-1.9-0.8-1.6-2l11.2-61.6c0.1-1.1,0.8-1.6,1.6-2c8.1-3.3,17.2-5.2,26.1-5.2
				c18.4,0,28.1,12.1,24.8,30.1l-6.9,38.9c-0.1,1.1-0.8,1.7-2,1.7h-11.6c-1.2,0-1.9-0.8-1.7-2l6.9-39.9c2.1-11.1-2.3-15.5-11.1-15.5
				c-4.7,0-9.2,1.1-12.3,2.3l-9.9,53.3c-0.1,1.2-0.8,1.7-2,1.7H932.9z"/>
		</g>
	</g>
	<g>
		<path class="st0" d="M150.9,84.3c-0.7,20.4-9.2,38.8-22.6,51.6c0,0,0,0-0.1,0c-12.2-11.8-28.5-19-46.3-19H18.4
			c-2.9,0-5.3-2.3-5.5-5.4L4.3,8.4c0,0,0-0.1,0-0.1l76.7,0C120.4,8.3,152.3,42.5,150.9,84.3z"/>
		<path class="st1" d="M12.2,159.2c0.6-2.6,2.8-4.4,5.3-4.4H82c17.8,0,34.1-7.2,46.3-19c13.9,13.4,22.6,32.8,22.6,54.3v1.5H4.3
			L12.2,159.2z"/>
	</g>
</g>
</svg>
