<?xml version="1.0" encoding="utf-8"?>
<!-- Generator: Adobe Illustrator 21.0.0, SVG Export Plug-In . SVG Version: 6.00 Build 0)  -->
<svg version="1.1" id="Layer_1" xmlns="http://www.w3.org/2000/svg" xmlns:xlink="http://www.w3.org/1999/xlink" x="0px" y="0px"
	 viewBox="0 0 500 90" style="enable-background:new 0 0 500 90;" xml:space="preserve">
<style type="text/css">
	.st0{fill:#FFFFFF;}
</style>
<g>
	<g>
		<g>
			<g>
				<path class="st0" d="M393.2,29.4l-5.3,38h-7.4l5.3-38h-13.8l1.1-7.5h35.1l-1.1,7.5H393.2z"/>
			</g>
		</g>
		<g>
			<g>
				<path class="st0" d="M419.3,68.1c-1.8,0-3.5-0.2-5-0.6c-1.5-0.4-2.9-1.1-3.9-2.1c-1.1-0.9-1.9-2.1-2.4-3.6
					c-0.3-0.9-0.5-1.9-0.5-3.1c0-0.6,0.1-1.3,0.2-2.1l3.1-22.3h7.1l-3.1,22.5c0,0.2,0,0.4,0,0.6c0,0.6,0.1,1.2,0.4,1.8
					c0.3,0.7,0.7,1.2,1.3,1.7c0.6,0.4,1.3,0.8,2.1,1c0.8,0.2,1.6,0.3,2.5,0.3c0.9,0,1.7-0.1,2.6-0.3c0.9-0.2,1.7-0.5,2.4-0.9
					l3.7-26.6h7l-4.4,31.1c-2.1,0.9-4.3,1.5-6.6,2C423.6,67.8,421.4,68.1,419.3,68.1z"/>
			</g>
		</g>
		<g>
			<g>
				<path class="st0" d="M456.9,33.5c0.6,0,1.1,0,1.7,0.1c0.6,0,1.3,0.2,2,0.3l-0.9,6.2c-0.7-0.2-1.6-0.3-2.5-0.3
					c-0.1,0-0.3,0-0.4,0c-1.1,0-2.2,0.3-3.2,0.7c-1,0.4-1.9,1-2.6,1.8c-0.8,0.8-1.2,1.7-1.4,2.8l-3.1,22.3h-7.1l3.1-22.5
					c0.3-2.4,1.2-4.5,2.6-6.2c1.4-1.8,3.1-3,5-3.8c1.4-0.6,2.8-1,4.1-1.2C455.5,33.6,456.4,33.5,456.9,33.5z"/>
			</g>
		</g>
		<g>
			<g>
				<path class="st0" d="M489.7,43.3c0,0.6,0,1.3-0.1,2.1l-3.1,22.1h-7l3-21.8c0-0.2,0-0.4,0-0.6c0-0.7-0.1-1.3-0.4-1.8
					c-0.3-0.7-0.8-1.2-1.4-1.7c-0.6-0.4-1.3-0.7-2.1-0.9c-0.8-0.2-1.6-0.3-2.5-0.3c-0.9,0-1.8,0.1-2.7,0.3c-0.9,0.2-1.7,0.5-2.3,0.9
					l-3.6,25.9h-7.1l4.4-31.2c1.8-0.9,3.8-1.5,6-2c2.1-0.5,4.2-0.7,6.3-0.7c1.8,0,3.6,0.3,5.2,0.7c1.6,0.4,3,1.1,4.2,2.1
					c1.2,0.9,2.1,2.1,2.7,3.6C489.5,40.9,489.7,42.1,489.7,43.3z"/>
			</g>
		</g>
	</g>
</g>
<g>
	<g>
		<g>
			<path class="st0" d="M153.2,79.4h-21.7l-14-21.9h-3.1l-3,21.9H93.7l4-27l0-0.1l12.2-1.8l9.4-1.4l6.3,4.5c3,1.8,6.4,2.9,9.9,3.3
				l2.1,0.2l13.9,19.9L153.2,79.4z"/>
			<g>
				<path class="st0" d="M150.8,43.3c-12.4,1.7-18.3-12.2-18.3-12.2l-7.2-14.3l-11.9,2.4l5.9,23.5l-30.8,4.6l10.5-6.4l4.1-29.6
					c0.1-0.4,0.4-0.6,0.7-0.6h26.9c3.6,0,6.8,0.5,9.8,1.5c3,1,5.5,2.4,7.5,4.4c2,1.9,3.5,4.4,4.4,7.4c0.9,3,1.1,6.5,0.7,10.5
					c-0.3,1.9-0.6,3.6-1,5.1c-0.3,1.1-0.6,2.1-1,3L150.8,43.3L150.8,43.3z"/>
			</g>
			<path class="st0" d="M214.7,79.4H196l-2.6-13.8H175l-6.1,13.8h-18.7l1.2-2.5l9.2-19c0.1-0.2,0.4-0.4,0.6-0.4
				c23.5-1.3,43.1-4,46.9-4.5c0.4-0.1,0.7,0.2,0.8,0.6L214.7,79.4z"/>
			<g>
				<path class="st0" d="M205.1,35.2L205.1,35.2l-14.8,3l-0.1-0.7l-0.9-7.6h-0.7l-3,7.3l1.5,0.8l0.8,0.5l-19.4,3.3L169,41l14.6-30
					c0.1-0.3,0.4-0.4,0.7-0.4h14.8c0.4,0,0.7,0.2,0.7,0.6L205.1,35.2z"/>
			</g>
			<g>
				<path class="st0" d="M278.1,35.4c-0.4,3.2-1.3,6.3-2.6,9.2c-1.4,2.9-3.2,5.5-5.5,7.6c-2.3,2.2-5.1,3.9-8.4,5.2
					c-3.3,1.3-7,1.9-11.1,1.9h-11l-2.8,20.1h-17.4l4.1-29c0-0.2,0.2-0.4,0.4-0.4c2.5-0.1,15.8-3.2,23.6-5.9c3-1,6.2-1.8,8.9-3.4
					c2.7-1.6,6-5.1,4.4-8.5c-0.4-0.8-1-1.4-1.7-1.8c-2-1.4-4.2-2.2-6.5-2.7c-6.1-1.3-12.8,0.2-18.8,1.5c-1.8,0.4-3.6,0.8-5.4,1.2
					c-0.2,0-2.3,0.4-2.3,0.6l2.8-19.8c0.1-0.4,0.4-0.6,0.7-0.6h26.9c4.2,0,7.8,0.7,10.7,2.1c2.9,1.4,5.2,3.3,7,5.6
					c1.3,1.6,2.2,3.5,2.9,5.4c0.3,0.8,0.5,1.6,0.7,2.5C278.3,29.2,278.5,32.3,278.1,35.4z"/>
			</g>
			<g>
				<g>
					<path class="st0" d="M304.8,10.6h-15.9c-0.4,0-0.7,0.3-0.7,0.6l-1.5,11l0,0.1l8.7-1.5l7.1-1.2l-0.3,0.1l-16.4,9.2l-7.1,50.5
						h17.4l8.4-60.1l1.1-7.9C305.7,11,305.3,10.6,304.8,10.6z"/>
				</g>
			</g>
			<g>
				<g>
					<path class="st0" d="M362.9,23.3c-1.1-2.9-2.8-5.3-5-7.1c-2.1-1.8-4.7-3.2-7.7-4.1c-0.1,0-0.2-0.1-0.3-0.1
						c-3.1-0.9-6.4-1.4-9.8-1.4H315c-0.4,0-0.7,0.3-0.7,0.6l-0.9,6.7l-8.6,61.5h25.8c3.4,0,6.8-0.4,10.2-1.3
						c3.3-0.9,6.4-2.2,9.1-4.1c2.7-1.8,5-4.2,6.9-7c1.9-2.9,3.1-6.3,3.7-10.2l3.3-23.1C364.3,29.6,364,26.1,362.9,23.3z M346.2,33.6
						l-3.3,23.1c-0.3,1.9-1.3,3.4-3.2,4.6c-1.8,1.2-4,1.8-6.4,1.8h-8.9l5.2-36.3h8.9c2.4,0,4.3,0.7,5.8,2
						C345.8,30.1,346.4,31.7,346.2,33.6z"/>
				</g>
			</g>
			<path class="st0" d="M213.2,48.4l-1.9,2.6c-5.9,0.8-11.7,1.6-17.6,2.1c-15.4,1.5-30.9,2.7-46.4,3.4c0,0,4-0.8,5.9-1.2
				c2.1-0.4,4.1-0.8,6.2-1.2c7.4-1.5,38.6-7.9,46-9.5L213.2,48.4z"/>
			<g>
				<polygon class="st0" points="88.7,49.9 116.3,48 108.5,46.1 				"/>
			</g>
		</g>
	</g>
	<g>
		<path class="st0" d="M209,53.5l5.7,25.9H196l-2.6-13.8H175l-6.1,13.8h-37.4l-14-21.9h-3.1l-3,21.9H93.7l4-27l12.2-1.9l9.4-1.4
			l6.3,4.5c3,1.8,6.4,2.9,9.9,3.3l2.1,0.2l13.9,19.9l9.2-19c0.1-0.2,0.4-0.4,0.6-0.4c23.5-1.3,43.1-4,46.9-4.5
			C208.6,52.8,208.9,53.1,209,53.5z"/>
		<path class="st0" d="M277.6,26.2c0.7,3,0.8,6,0.5,9.1c-0.4,3.2-1.3,6.3-2.6,9.2c-1.4,2.9-3.2,5.5-5.5,7.6
			c-2.3,2.2-5.1,3.9-8.4,5.2c-3.3,1.3-7,1.9-11.1,1.9h-11l-2.8,20.1h-17.4l4.1-29c0-0.2,0.2-0.4,0.4-0.4c2.5-0.1,15.8-3.2,23.6-5.9
			c3-1,6.2-1.8,8.9-3.4c2.7-1.6,6-5.1,4.4-8.5c-0.4-0.8-1-1.4-1.7-1.8c-2-1.4-4.2-2.2-6.5-2.7l24.5-3.9
			C277.2,24.5,277.5,25.4,277.6,26.2z"/>
		<polygon class="st0" points="295.3,20.8 286.7,22.3 286.7,22.2 		"/>
		<polygon class="st0" points="302.1,19.7 304.5,19.3 296.1,79.4 278.6,79.4 285.7,28.9 		"/>
		<path class="st0" d="M362.9,23.3c-1.1-2.9-2.8-5.3-5-7.1c-2.1-1.8-4.7-3.2-7.7-4.1l-36.9,5.9l-8.6,61.5h25.8
			c3.4,0,6.8-0.4,10.2-1.3c3.3-0.9,6.4-2.2,9.1-4.1c2.7-1.8,5-4.2,6.9-7c1.9-2.9,3.1-6.3,3.7-10.2l3.3-23.1
			C364.3,29.6,364,26.1,362.9,23.3z M346.2,33.6l-3.3,23.1c-0.3,1.9-1.3,3.4-3.2,4.6c-1.8,1.2-4,1.8-6.4,1.8h-8.9l5.2-36.3h8.9
			c2.4,0,4.3,0.7,5.8,2C345.8,30.1,346.4,31.7,346.2,33.6z"/>
	</g>
	<path class="st0" d="M193.8,53.1c-15.4,1.5-30.9,2.7-46.4,3.4c0,0,4-0.8,5.9-1.2c2.1-0.4,4.1-0.8,6.2-1.2c7.4-1.5,38.6-7.9,46-9.5
		l7.7,3.8l-1.9,2.6C205.5,51.8,199.6,52.5,193.8,53.1z"/>
</g>
<g>
	<g>
		<g>
			<path class="st0" d="M43.9,72.7L43.9,72.7l0-28c0-1,0.6-2,1.5-2.5L70.5,30l0,0c2.6,5.4,0.4,11.9-5.1,14.6l-10.7,5.2v12
				C54.8,67.8,49.9,72.7,43.9,72.7z"/>
		</g>
		<g>
			<path class="st0" d="M59.1,20.9L59.1,20.9L42,31.9c-0.6,0.4-1.5,0.4-2.1,0L22.7,21.3l0,0c2.3-3.7,7.1-4.9,10.8-2.6l7.4,4.5
				l7.3-4.7C51.9,16.2,56.7,17.3,59.1,20.9z"/>
		</g>
		<g>
			<path class="st0" d="M38.1,72.7L38.1,72.7c-6,0-10.9-4.9-10.9-10.9v-12l-10.7-5.2C11,42,8.8,35.4,11.4,30l0,0l25.1,12.2
				c0.9,0.5,1.5,1.4,1.5,2.5V72.7z"/>
		</g>
		<g>
			<path class="st0" d="M43.9,62.2v10.5h-5.8V62c0,1.6,1.3,2.9,2.9,2.9C42.5,64.9,43.8,63.7,43.9,62.2z"/>
		</g>
	</g>
</g>
</svg>
